{
  "source": "C:\\Users\\Peter\\Desktop\\stuff\\MIUN\\quantitative_research\\video_compression\\videos\\BVI-HD\\BVI-HD_CDVL_videos\\ORIG\\PlasmaAveragePan_1920x1080_60fps.mp4",
  "output": "C:\\Users\\Peter\\Desktop\\stuff\\MIUN\\quantitative_research\\video_compression\\compressed_videos\\BVI-HD\\vp9\\1\\PlasmaAveragePan_1920x1080_60fps_vp9.webm",
  "codec": "vp9",
  "ok": "Input #0, mov,mp4,m4a,3gp,3g2,mj2, from 'C:\\Users\\Peter\\Desktop\\stuff\\MIUN\\quantitative_research\\video_compression\\videos\\BVI-HD\\BVI-HD_CDVL_videos\\ORIG\\PlasmaAveragePan_1920x1080_60fps.mp4':\n  Metadata:\n    major_brand     : isom\n    minor_version   : 512\n    compatible_brands: isomiso2avc1mp41\n    encoder         : Lavf54.28.101\n  Duration: 00:00:05.00, start: 0.000000, bitrate: 73730 kb/s\n  Stream #0:0[0x1](und): Video: h264 (High 4:4:4 Predictive) (avc1 / 0x31637661), yuv420p(progressive), 1920x1080, 73727 kb/s, 60 fps, 60 tbr, 60 tbn (default)\n    Metadata:\n      handler_name    : VideoHandler\n      vendor_id       : [0][0][0][0]\n[out#0/webm @ 0000021f678c0840] Codec AVOption b:a (set bitrate (in bits/s)) has not been used for any stream. The most likely reason is either wrong type (e.g. a video option with no video streams) or that it is a private option of some decoder which was not actually used for any stream.\nStream mapping:\n  Stream #0:0 -> #0:0 (h264 (native) -> vp9 (libvpx-vp9))\nPress [q] to stop, [?] for help\n[libvpx-vp9 @ 0000021f67ff2240] v1.15.2-100-g40561f514\nOutput #0, webm, to 'C:\\Users\\Peter\\Desktop\\stuff\\MIUN\\quantitative_research\\video_compression\\compressed_videos\\BVI-HD\\vp9\\1\\PlasmaAveragePan_1920x1080_60fps_vp9.webm':\n  Metadata:\n    major_brand     : isom\n    minor_version   : 512\n    compatible_brands: isomiso2avc1mp41\n    encoder         : Lavf62.3.100\n  Stream #0:0(und): Video: vp9, yuv420p(tv, progressive), 1920x1080, q=2-31, 1000 kb/s, 60 fps, 1k tbn (default)\n    Metadata:\n      encoder         : Lavc62.11.100 libvpx-vp9\n      handler_name    : VideoHandler\n      vendor_id       : [0][0][0][0]\n    Side data:\n      cpb: bitrate max/min/avg: 0/0/0 buffer size: 1000000 vbv_delay: N/A\nframe=    5 fps=0.0 q=63.0 size=       1KiB time=00:00:00.08 bitrate=  60.8kbits/s speed=0.159x elapsed=0:00:00.52    \nframe=   15 fps= 15 q=59.0 size=       1KiB time=00:00:00.25 bitrate=  20.3kbits/s speed=0.243x elapsed=0:00:01.02    \nframe=   23 fps= 15 q=59.0 size=       1KiB time=00:00:00.38 bitrate=  13.2kbits/s speed=0.248x elapsed=0:00:01.54    \nframe=   33 fps= 16 q=60.0 size=       1KiB time=00:00:00.53 bitrate=   9.5kbits/s speed=0.258x elapsed=0:00:02.06    \nframe=   41 fps= 16 q=60.0 size=       1KiB time=00:00:00.68 bitrate=   7.4kbits/s speed=0.262x elapsed=0:00:02.60    \nframe=   50 fps= 16 q=61.0 size=       1KiB time=00:00:00.83 bitrate=   6.1kbits/s speed=0.267x elapsed=0:00:03.12    \nframe=   59 fps= 16 q=60.0 size=       1KiB time=00:00:00.98 bitrate=   5.1kbits/s speed=0.27x elapsed=0:00:03.64    \nframe=   69 fps= 17 q=61.0 size=       1KiB time=00:00:01.15 bitrate=   4.4kbits/s speed=0.276x elapsed=0:00:04.16    \nframe=   78 fps= 17 q=62.0 size=       1KiB time=00:00:01.30 bitrate=   3.9kbits/s speed=0.277x elapsed=0:00:04.69    \nframe=   87 fps= 17 q=61.0 size=       1KiB time=00:00:01.45 bitrate=   3.5kbits/s speed=0.279x elapsed=0:00:05.20    \nframe=   96 fps= 17 q=60.0 size=       1KiB time=00:00:01.60 bitrate=   3.2kbits/s speed=0.279x elapsed=0:00:05.72    \nframe=  104 fps= 17 q=59.0 size=       1KiB time=00:00:01.73 bitrate=   2.9kbits/s speed=0.278x elapsed=0:00:06.24    \nframe=  113 fps= 17 q=62.0 size=       1KiB time=00:00:01.88 bitrate=   2.7kbits/s speed=0.278x elapsed=0:00:06.77    \nframe=  122 fps= 17 q=62.0 size=       1KiB time=00:00:02.03 bitrate=   2.5kbits/s speed=0.279x elapsed=0:00:07.28    \nframe=  131 fps= 17 q=61.0 size=     194KiB time=00:00:02.18 bitrate= 728.7kbits/s speed=0.28x elapsed=0:00:07.79    \nframe=  140 fps= 17 q=40.0 size=     194KiB time=00:00:02.33 bitrate= 681.9kbits/s speed=0.281x elapsed=0:00:08.31    \nframe=  149 fps= 17 q=61.0 size=     194KiB time=00:00:02.48 bitrate= 640.7kbits/s speed=0.281x elapsed=0:00:08.83    \nframe=  158 fps= 17 q=62.0 size=     194KiB time=00:00:02.63 bitrate= 604.2kbits/s speed=0.282x elapsed=0:00:09.35    \nframe=  167 fps= 17 q=62.0 size=     194KiB time=00:00:02.78 bitrate= 571.6kbits/s speed=0.282x elapsed=0:00:09.88    \nframe=  176 fps= 17 q=41.0 size=     194KiB time=00:00:02.93 bitrate= 542.4kbits/s speed=0.282x elapsed=0:00:10.40    \nframe=  185 fps= 17 q=60.0 size=     194KiB time=00:00:03.08 bitrate= 516.0kbits/s speed=0.282x elapsed=0:00:10.92    \nframe=  193 fps= 17 q=61.0 size=     194KiB time=00:00:03.21 bitrate= 494.6kbits/s speed=0.281x elapsed=0:00:11.43    \nframe=  202 fps= 17 q=61.0 size=     194KiB time=00:00:03.36 bitrate= 472.6kbits/s speed=0.281x elapsed=0:00:11.96    \nframe=  210 fps= 17 q=61.0 size=     194KiB time=00:00:03.50 bitrate= 454.6kbits/s speed=0.281x elapsed=0:00:12.46    \nframe=  219 fps= 17 q=60.0 size=     194KiB time=00:00:03.65 bitrate= 435.9kbits/s speed=0.281x elapsed=0:00:12.98    \nframe=  228 fps= 17 q=60.0 size=     194KiB time=00:00:03.80 bitrate= 418.7kbits/s speed=0.282x elapsed=0:00:13.49    \nframe=  237 fps= 17 q=62.0 size=     194KiB time=00:00:03.95 bitrate= 402.8kbits/s speed=0.282x elapsed=0:00:14.02    \nframe=  246 fps= 17 q=41.0 size=     194KiB time=00:00:04.08 bitrate= 389.6kbits/s speed=0.281x elapsed=0:00:14.53    \nframe=  255 fps= 17 q=62.0 size=     194KiB time=00:00:04.25 bitrate= 374.4kbits/s speed=0.282x elapsed=0:00:15.08    \nframe=  265 fps= 17 q=60.0 size=     256KiB time=00:00:04.41 bitrate= 474.8kbits/s speed=0.283x elapsed=0:00:15.61    \nframe=  274 fps= 17 q=60.0 size=     256KiB time=00:00:04.56 bitrate= 459.2kbits/s speed=0.283x elapsed=0:00:16.12    \nframe=  276 fps= 17 q=60.0 size=     256KiB time=00:00:04.60 bitrate= 455.9kbits/s speed=0.276x elapsed=0:00:16.64    \nframe=  276 fps= 16 q=60.0 size=     256KiB time=00:00:04.60 bitrate= 455.9kbits/s speed=0.268x elapsed=0:00:17.15    \n[out#0/webm @ 0000021f678c0840] video:460KiB audio:0KiB subtitle:0KiB other streams:0KiB global headers:0KiB muxing overhead: 0.599398%\nframe=  300 fps= 17 q=61.0 Lsize=     463KiB time=00:00:05.00 bitrate= 758.6kbits/s speed=0.283x elapsed=0:00:17.66    \n",
  "seconds": 17.848544120788574,
  "probe_out": {}
}